<svg width="108" height="34" viewBox="0 0 108 34" fill="none" xmlns="http://www.w3.org/2000/svg">
<path d="M0.96 14.38C0.96 12.3 1.39 10.45 2.25 8.83C3.13 7.19 4.37 5.92 5.97 5.02C7.57 4.1 9.41 3.64 11.49 3.64C14.13 3.64 16.35 4.35 18.15 5.77C19.95 7.17 21.11 9.08 21.63 11.5H15.3C14.92 10.7 14.39 10.09 13.71 9.67C13.05 9.25 12.28 9.04 11.4 9.04C10.04 9.04 8.95 9.53 8.13 10.51C7.33 11.47 6.93 12.76 6.93 14.38C6.93 16.02 7.33 17.33 8.13 18.31C8.95 19.27 10.04 19.75 11.4 19.75C12.28 19.75 13.05 19.54 13.71 19.12C14.39 18.7 14.92 18.09 15.3 17.29H21.63C21.11 19.71 19.95 21.63 18.15 23.05C16.35 24.45 14.13 25.15 11.49 25.15C9.41 25.15 7.57 24.7 5.97 23.8C4.37 22.88 3.13 21.61 2.25 19.99C1.39 18.35 0.96 16.48 0.96 14.38ZM40.4944 16.39C40.4944 16.85 40.4644 17.31 40.4044 17.77H29.2744C29.3344 18.69 29.5844 19.38 30.0244 19.84C30.4844 20.28 31.0644 20.5 31.7644 20.5C32.7444 20.5 33.4444 20.06 33.8644 19.18H40.1344C39.8744 20.34 39.3644 21.38 38.6044 22.3C37.8644 23.2 36.9244 23.91 35.7844 24.43C34.6444 24.95 33.3844 25.21 32.0044 25.21C30.3444 25.21 28.8644 24.86 27.5644 24.16C26.2844 23.46 25.2744 22.46 24.5344 21.16C23.8144 19.86 23.4544 18.33 23.4544 16.57C23.4544 14.81 23.8144 13.29 24.5344 12.01C25.2544 10.71 26.2544 9.71 27.5344 9.01C28.8344 8.31 30.3244 7.96 32.0044 7.96C33.6644 7.96 35.1344 8.3 36.4144 8.98C37.6944 9.66 38.6944 10.64 39.4144 11.92C40.1344 13.18 40.4944 14.67 40.4944 16.39ZM34.4944 14.92C34.4944 14.2 34.2544 13.64 33.7744 13.24C33.2944 12.82 32.6944 12.61 31.9744 12.61C31.2544 12.61 30.6644 12.81 30.2044 13.21C29.7444 13.59 29.4444 14.16 29.3044 14.92H34.4944ZM48.7807 11.14C49.4407 10.18 50.2407 9.42 51.1807 8.86C52.1207 8.3 53.1307 8.02 54.2107 8.02V14.29H52.5607C51.2807 14.29 50.3307 14.54 49.7107 15.04C49.0907 15.54 48.7807 16.41 48.7807 17.65V25H42.9007V8.17H48.7807V11.14ZM66.2487 19.99V25H63.6987C59.3987 25 57.2487 22.87 57.2487 18.61V13.06H55.1787V8.17H57.2487V4.09H63.1587V8.17H66.2187V13.06H63.1587V18.7C63.1587 19.16 63.2587 19.49 63.4587 19.69C63.6787 19.89 64.0387 19.99 64.5387 19.99H66.2487ZM71.9156 6.61C70.8756 6.61 70.0356 6.33 69.3956 5.77C68.7756 5.19 68.4656 4.47 68.4656 3.61C68.4656 2.73 68.7756 2 69.3956 1.42C70.0356 0.839999 70.8756 0.549998 71.9156 0.549998C72.9356 0.549998 73.7556 0.839999 74.3756 1.42C75.0156 2 75.3356 2.73 75.3356 3.61C75.3356 4.47 75.0156 5.19 74.3756 5.77C73.7556 6.33 72.9356 6.61 71.9156 6.61ZM74.8256 8.17V25H68.9456V8.17H74.8256ZM87.2641 13.06H84.6241V25H78.7141V13.06H76.8841V8.17H78.7141V8.02C78.7141 5.86 79.3441 4.21 80.6041 3.07C81.8841 1.91 83.7141 1.33 86.0941 1.33C86.5741 1.33 86.9441 1.34 87.2041 1.36V6.37C87.0441 6.35 86.8241 6.34 86.5441 6.34C85.9041 6.34 85.4341 6.49 85.1341 6.79C84.8341 7.07 84.6641 7.53 84.6241 8.17H87.2641V13.06ZM107.486 8.17L96.8055 33.01H90.4155L94.4355 24.28L87.5355 8.17H94.0755L97.6155 17.71L101.036 8.17H107.486Z" fill="#00509D"/>
</svg>
